<?xml version="1.0" encoding="UTF-8"?>
<svg width="84px" height="118px" viewBox="0 0 84 118" version="1.1" xmlns="http://www.w3.org/2000/svg" xmlns:xlink="http://www.w3.org/1999/xlink">
    <!-- Generator: Sketch 50.2 (55047) - http://www.bohemiancoding.com/sketch -->
    <title>noun_1596242_cc</title>
    <desc>Created with Sketch.</desc>
    <defs>
        <filter x="-8.7%" y="-15.2%" width="117.4%" height="131.3%" filterUnits="objectBoundingBox" id="filter-1">
            <feOffset dx="0" dy="0" in="SourceAlpha" result="shadowOffsetOuter1"></feOffset>
            <feGaussianBlur stdDeviation="10" in="shadowOffsetOuter1" result="shadowBlurOuter1"></feGaussianBlur>
            <feColorMatrix values="0 0 0 0 0   0 0 0 0 0   0 0 0 0 0  0 0 0 0.13391644 0" type="matrix" in="shadowBlurOuter1" result="shadowMatrixOuter1"></feColorMatrix>
            <feMerge>
                <feMergeNode in="shadowMatrixOuter1"></feMergeNode>
                <feMergeNode in="SourceGraphic"></feMergeNode>
            </feMerge>
        </filter>
    </defs>
    <g id="Page-1" stroke="none" stroke-width="1" fill="none" fill-rule="evenodd">
        <g id="HD-Desktop" transform="translate(-1061.000000, -1120.000000)" fill="#38DFFF" fill-rule="nonzero">
            <g id="Main-Headline-3" filter="url(#filter-1)" transform="translate(927.000000, 1118.000000)">
                <g id="noun_1596242_cc" transform="translate(154.000000, 22.000000)">
                    <g id="Group">
                        <path d="M34.5714286,78 L9.42857143,78 C4.23028571,78 0,73.6265833 0,68.25 L0,9.75 C0,4.3745 4.23028571,0 9.42857143,0 L34.5714286,0 C39.7707619,0 44,4.3745 44,9.75 L44,68.25 C44,73.6265833 39.7707619,78 34.5714286,78 Z M9.42857143,2.16666667 C5.3847619,2.16666667 2.0952381,5.56833333 2.0952381,9.75 L2.0952381,68.25 C2.0952381,72.4305833 5.3847619,75.8333333 9.42857143,75.8333333 L34.5714286,75.8333333 C38.6141905,75.8333333 41.9047619,72.4305833 41.9047619,68.25 L41.9047619,9.75 C41.9047619,5.56833333 38.6141905,2.16666667 34.5714286,2.16666667 L9.42857143,2.16666667 Z" id="Shape"></path>
                        <path d="M34.0127877,73 L9.03069054,73 C6.16087212,73 3.82608696,70.5817656 3.82608696,67.609375 L3.82608696,9.390625 C3.82608696,6.41823437 6.16087212,4 9.03069054,4 L14.2352941,4 L14.2352941,6.15625 C14.2352941,6.75029687 14.7026675,7.234375 15.2762148,7.234375 L27.7672634,7.234375 C28.3418517,7.234375 28.8081841,6.75029687 28.8081841,6.15625 L28.8081841,4 L34.0127877,4 C36.8826061,4 39.2173913,6.41823437 39.2173913,9.390625 L39.2173913,67.609375 C39.2173913,70.5817656 36.8826061,73 34.0127877,73 Z M9.03069054,6.15625 C7.30900767,6.15625 5.90792839,7.60740625 5.90792839,9.390625 L5.90792839,67.609375 C5.90792839,69.3925938 7.30900767,70.84375 9.03069054,70.84375 L34.0127877,70.84375 C35.7344706,70.84375 37.1355499,69.3925938 37.1355499,67.609375 L37.1355499,9.390625 C37.1355499,7.60740625 35.7344706,6.15625 34.0127877,6.15625 L30.8900256,6.15625 C30.8900256,7.93946875 29.4889463,9.390625 27.7672634,9.390625 L15.2762148,9.390625 C13.554532,9.390625 12.1534527,7.93946875 12.1534527,6.15625 L9.03069054,6.15625 Z" id="Shape"></path>
                    </g>
                </g>
            </g>
        </g>
    </g>
</svg>