<?xml version="1.0" encoding="UTF-8"?>
<svg width="134px" height="104px" viewBox="0 0 134 104" version="1.1" xmlns="http://www.w3.org/2000/svg" xmlns:xlink="http://www.w3.org/1999/xlink">
    <!-- Generator: Sketch 50.2 (55047) - http://www.bohemiancoding.com/sketch -->
    <title>Group</title>
    <desc>Created with Sketch.</desc>
    <defs>
        <filter x="-8.7%" y="-15.2%" width="117.4%" height="130.8%" filterUnits="objectBoundingBox" id="filter-1">
            <feOffset dx="0" dy="0" in="SourceAlpha" result="shadowOffsetOuter1"></feOffset>
            <feGaussianBlur stdDeviation="10" in="shadowOffsetOuter1" result="shadowBlurOuter1"></feGaussianBlur>
            <feColorMatrix values="0 0 0 0 0   0 0 0 0 0   0 0 0 0 0  0 0 0 0.13391644 0" type="matrix" in="shadowBlurOuter1" result="shadowMatrixOuter1"></feColorMatrix>
            <feMerge>
                <feMergeNode in="shadowMatrixOuter1"></feMergeNode>
                <feMergeNode in="SourceGraphic"></feMergeNode>
            </feMerge>
        </filter>
    </defs>
    <g id="Page-1" stroke="none" stroke-width="1" fill="none" fill-rule="evenodd">
        <g id="HD-Desktop" transform="translate(-277.000000, -1128.000000)" fill="#65EC9D" fill-rule="nonzero">
            <g id="Main-Headline-1" filter="url(#filter-1)" transform="translate(167.000000, 1118.000000)">
                <g id="noun_1379462_cc" transform="translate(129.000000, 30.000000)">
                    <g id="Group">
                        <path d="M12.4299065,0 L12.4299065,4.00288373 L55.4976938,4.00288373 L55.4976938,28.4404889 L85.9654338,28.4404889 L91.0014239,34.8350956 L91.0014239,51.9174019 L83.2459991,51.9174019 C82.3001193,46.6070581 77.6550206,42.7368925 72.2272528,42.7368925 C66.799485,42.7368925 62.1543863,46.6070581 61.2085065,51.9174019 L41.2760578,51.9174019 C40.3301779,46.6070581 35.6850793,42.7368925 30.2573114,42.7368925 C24.8295436,42.7368925 20.184445,46.6070581 19.2385651,51.9174019 L12.4299065,51.9174019 L12.4299065,55.9202857 L19.2083492,55.9202857 C20.2005778,61.1846864 24.8264442,65 30.2170235,65 C35.6076029,65 40.2334692,61.1846864 41.2256979,55.9202857 L61.1883626,55.9202857 C62.1805912,61.1846864 66.8064575,65 72.1970369,65 C77.5876163,65 82.2134826,61.1846864 83.2057112,55.9202857 L95,55.9202857 L95,33.5041368 L88.7352283,25.4983693 L78.9956235,5.11368396 L59.5264858,5.11368396 L59.5264858,0.0100072093 L12.4299065,0 Z M30.1968796,61.003948 C27.2913901,61.0039452 24.6721846,59.2644393 23.5612451,56.5969913 C22.4503057,53.9295434 23.0665574,50.8598087 25.12249,48.8199624 C27.1784226,46.780116 30.2688877,46.1721363 32.9520386,47.2796742 C35.6351896,48.3872122 37.3822765,50.9920129 37.3782014,53.878815 C37.3726443,57.8155355 34.1590841,61.0039519 30.1968796,61.003948 Z M72.1869649,61.003948 C69.2814754,61.0039452 66.6622699,59.2644393 65.5513305,56.5969913 C64.440391,53.9295434 65.0566427,50.8598087 67.1125753,48.8199624 C69.1685079,46.780116 72.258973,46.1721363 74.942124,47.2796742 C77.6252749,48.3872122 79.3723618,50.9920129 79.3682868,53.878815 C79.3627391,57.8116319 76.1553086,60.998436 72.1970369,61.003948 L72.1869649,61.003948 Z M76.4474125,9.11656769 L83.799958,24.4476124 L59.5264858,24.4476124 L59.5264858,9.11656769 L76.4474125,9.11656769 Z M5.3271028,36.0135135 L21.3084112,36.0135135 L21.3084112,40.4054054 L5.3271028,40.4054054 L5.3271028,36.0135135 Z M1.08357767e-13,24.5945946 L28.411215,24.5945946 L28.411215,28.9864865 L1.08357767e-13,28.9864865 L1.08357767e-13,24.5945946 Z M5.3271028,11.4189189 L33.7383178,11.4189189 L33.7383178,15.8108108 L5.3271028,15.8108108 L5.3271028,11.4189189 Z" id="Shape"></path>
                    </g>
                </g>
            </g>
        </g>
    </g>
</svg>