<svg id="Layer_1" data-name="Layer 1" xmlns="http://www.w3.org/2000/svg" xmlns:xlink="http://www.w3.org/1999/xlink" viewBox="0 0 70 84"><defs><style>.cls-1{filter:url(#filter-1);}.cls-2{fill:#c733ff;}</style><filter id="filter-1" x="-26.7" y="-34.2" width="117.4" height="130.8" name="filter-1"><feOffset result="shadowOffsetOuter1" in="SourceAlpha"/><feGaussianBlur result="shadowBlurOuter1" stdDeviation="10" in="shadowOffsetOuter1"/><feColorMatrix result="shadowMatrixOuter1" values="0 0 0 0 0 0 0 0 0 0 0 0 0 0 0 0 0 0 0.13 0" in="shadowBlurOuter1"/><feMerge><feMergeNode in="shadowMatrixOuter1"/><feMergeNode in="SourceGraphic"/></feMerge></filter></defs><title>icon-shoe</title><g id="Page-1"><g id="HD-Desktop"><g class="cls-1"><g id="Group-2"><path id="icon-shoe" class="cls-2" d="M80.11,98c13.55-12.16,6.8-27.29.8-40.66-2.78-6.23-5.42-12.13-6.1-17.51A1.58,1.58,0,0,0,74,38.69a1.56,1.56,0,0,0-1.41-.08c-.09,0-8.75,3.61-14.75-3.31-5.59-6.47-2-13.72-1.86-14A1.6,1.6,0,0,0,54.5,19c-.33,0-8.2.58-19.44,6.62a82.22,82.22,0,0,0-11.65,7.63l-4.86,4.21a1.58,1.58,0,0,0-.16,2.24l54.2,62.75a1.57,1.57,0,0,0,2.23.16L80,98.14l.11-.1Zm-1.28-3L60,73.56l.88-.56,1.21.79a1.59,1.59,0,0,0,1.75,0L65.06,73l1.19.79a1.61,1.61,0,0,0,1.76,0L69.22,73l1.19.79a1.65,1.65,0,0,0,1.76,0l1.21-.77,1.2.79a1.63,1.63,0,0,0,1.75,0l1.22-.77,1.19.79a1.65,1.65,0,0,0,1.76,0l1.21-.59,1.19.79a1.59,1.59,0,0,0,1.09.19,33.11,33.11,0,0,1,.83,4.53A18.26,18.26,0,0,1,78.83,95ZM76,65.11l1.55-.89,1.53.92a1.55,1.55,0,0,0,1.42.09c.54,1.34,1,2.68,1.49,4a1.52,1.52,0,0,0-1.71,0L79.1,70l-1.17-.8a1.52,1.52,0,0,0-1.71,0L75,70l-1.16-.8a1.54,1.54,0,0,0-1.72,0L71,70l-1.17-.8a1.52,1.52,0,0,0-1.71,0l-1.19.78L65.67,69A1.54,1.54,0,0,0,64,69l-1.18.78L61.6,69a1.52,1.52,0,0,0-1.71,0l-1.19.78L57.53,69a1.56,1.56,0,0,0-1.15-.24l-3.38-4L54.32,64l1.54.92a1.55,1.55,0,0,0,1.56,0L59,64l1.53.92a1.55,1.55,0,0,0,1.56,0l1.55-.89,1.53.92a1.55,1.55,0,0,0,1.56,0l1.54-.89,1.53.92a1.55,1.55,0,0,0,1.56,0l1.56-.89,1.59,1a1.54,1.54,0,0,0,1.55,0Zm3-2.68-.52-.29a1.57,1.57,0,0,0-1.57,0L75.35,63l-1.54-.89a1.57,1.57,0,0,0-1.57,0L70.67,63l-1.54-.89a1.57,1.57,0,0,0-1.57,0L66,62.94l-1.54-.89a1.57,1.57,0,0,0-1.57,0l-1.56.86-1.61-1a1.62,1.62,0,0,0-1.57,0l-1.57.87L55,61.91a1.62,1.62,0,0,0-1.57,0l-1.57.87-1.55-.9a1.53,1.53,0,0,0-1-.25L46,57.88,47.78,57l1.86,1a1.59,1.59,0,0,0,1.44,0L53,57l1.87,1a1.61,1.61,0,0,0,1.45,0l1.88-1,1.87,1a1.59,1.59,0,0,0,1.44,0l1.88-1,1.87,1a1.59,1.59,0,0,0,1.44,0l1.89-1,1.86,1a1.59,1.59,0,0,0,1.44,0l1.89-1,1.86,1a1.57,1.57,0,0,0,1.43,0l.51,1.14c.46,1,.92,2,1.37,3ZM66.75,43.13a18,18,0,0,0,4.37-.63,61.17,61.17,0,0,0,3.88,12L74.1,54a1.55,1.55,0,0,0-1.45,0l-1.9,1-1.88-1a1.57,1.57,0,0,0-1.46,0l-1.9,1-1.88-1a1.55,1.55,0,0,0-1.45,0l-1.9,1-1.89-1a1.55,1.55,0,0,0-1.45,0L55,55l-1.88-1a1.57,1.57,0,0,0-1.46,0l-1.91,1-1.88-1a1.55,1.55,0,0,0-1.45,0l-1.91,1-1.89-1a1.58,1.58,0,0,0-1-.16L26,34.87A80.83,80.83,0,0,1,34.74,29a15.26,15.26,0,0,0,16.92,3.39,16.67,16.67,0,0,0,3,5.23,14.92,14.92,0,0,0,12,5.52ZM52,23a17.68,17.68,0,0,0-.5,6.83A12.75,12.75,0,0,1,38,28,57.71,57.71,0,0,1,52,23Zm21.54,77L22,39.15,24.43,37,76,97.84Z" transform="translate(-18 -19)"/></g></g></g></g></svg>